<svg id="Capa_1" data-name="Capa 1" xmlns="http://www.w3.org/2000/svg" viewBox="0 0 420.45 76.52"><defs><style>.cls-1{fill:#a50c0c;}</style></defs><title>reactm</title><path class="cls-1" d="M14.29,48.5v24H2.14v-69h17.5C32,3.55,36.07,9.78,36.07,23.2c0,8-1.91,14.66-6.23,16.86,3.91,2.69,6.28,4.41,6.28,18.31,0,9-.16,12.08,1.29,12.08v2.1H25.1a82.16,82.16,0,0,1-.62-12.07c0-9-.82-12-6.48-12Zm0-15.14h4.79c3.76,0,5.76-1.73,5.76-6.52S22.79,19.65,20,19.65H14.29Z"/><path class="cls-1" d="M43,72.55v-69H73.19v16.1H55.12v9.87H70.41v16.1H55.12V56.45H73.91v16.1Z"/><path class="cls-1" d="M76.8,72.55l13.28-69h12.36l13.28,69h-12.1l-1.44-9.1H90.08l-1.39,9.1Zm19.35-48.2L92.4,49.07h7.67Z"/><path class="cls-1" d="M143,29.91c-.36-7.19-2.78-11.31-6.59-11.31-4.27,0-6.85,6.8-6.85,20.12,0,9.68,1.13,18.79,7.31,18.79,3.91,0,5.77-5.08,6.23-11.7H154.8c-1.08,17.83-7.93,28.57-17.71,28.57-12.26,0-19.67-14-19.67-36.42S125.56,1.73,135.9,1.73c11.33,0,17.66,10.44,18.64,28.18Z"/><path class="cls-1" d="M157.94,3.55h34V21.66H181V72.55H168.86V21.66H157.94Z"/><path class="cls-1" d="M196.61,72.55v-69h14.67l6.54,43,6.54-43H239v69H228.12V51.47l.15-10.73.62-12.46h-.1L222,72.55H213.6l-6.75-44.27h-.1l.52,10.16.25,10.73V72.55Z"/><path class="cls-1" d="M283,37.67c0,23.48-8.49,36.71-19.46,36.71-11.63,0-19.41-13.42-19.41-36.9,0-21.66,7.88-35.75,19.41-35.75C276.77,1.73,283,19.46,283,37.67Zm-26.72,0c0,8.82,1.44,19.84,7.26,19.84,5.25,0,7.31-8.44,7.31-19.84,0-9.39-2.06-19.36-7.41-19.07C257.93,18.6,256.28,29,256.28,37.67Z"/><path class="cls-1" d="M286.15,3.55H298.4l6.49,45.91,6.74-45.91h12.25L311,72.55h-12.2Z"/><path class="cls-1" d="M329,72.55v-69h12.15v69Z"/><path class="cls-1" d="M349,72.55v-69h30.22v16.1H361.16v9.87h15.29v16.1H361.16V56.45H380v16.1Z"/><path class="cls-1" d="M405.18,23.58c-.2-2.4-.87-3.83-1.75-4.7a4.31,4.31,0,0,0-3.14-1.24c-2.68,0-3.86,1.44-3.86,3.93,0,10.35,21.31,3.93,21.31,29,0,16-7.15,23.77-17.35,23.77-9.78,0-16.16-10.64-16.42-23.1h11.64a9.52,9.52,0,0,0,2,5.46,4.81,4.81,0,0,0,8.5-3.35c0-10.45-21.32-3.26-21.32-29.62,0-14.66,6.8-22,16.07-22,10.29,0,15,9.77,15.85,21.85Z"/></svg>